<svg id="Capa_1" enable-background="new 0 0 512 512" height="512" viewBox="0 0 512 512" width="512" xmlns="http://www.w3.org/2000/svg"><g><path d="m451.513 131.33c.326-3.496.487-6.925.487-10.33 0-66.205-54.538-121-121-121-46.358 0-86.081 26.386-105.92 64.219-9.506-2.804-19.24-4.219-29.08-4.219-52.858 0-96.718 39.63-103.953 91.006-50.246-.589-92.047 39.936-92.047 89.994 0 49.52 41.035 90 91 90h316c57.897 0 105-47.103 105-105 0-40.932-23.849-77.552-60.487-94.67zm-44.513 169.67h-316c-33.636 0-61-26.916-61-60s27.364-60 61-60c4.082 0 8.166.414 12.138 1.229 9.639 1.98 19.274-5.812 17.866-17.002.411-41.551 33.896-75.227 74.996-75.227 10.476 0 20.843 2.291 30.814 6.808 3.779 1.712 8.097 1.782 11.929.195 3.833-1.587 6.836-4.69 8.298-8.573 13.162-34.949 46.901-58.43 83.959-58.43 49.327 0 91 41.673 91 91 0 5.4-.567 10.98-1.735 17.059-1.423 7.407 2.875 14.719 10.039 17.077 30.921 10.181 51.696 38.659 51.696 70.864 0 41.355-33.645 75-75 75z"/><path d="m191.048 473.5c4.163 7.21 13.35 9.613 20.49 5.49l29.462-17.009v35.019c0 8.284 6.716 15 15 15s15-6.716 15-15v-35.019l29.462 17.01c7.15 4.128 16.334 1.709 20.49-5.49 4.143-7.174 1.685-16.348-5.49-20.49l-29.462-17.011 29.461-17.01c7.175-4.142 9.633-13.316 5.49-20.49-4.143-7.175-13.316-9.631-20.49-5.49l-29.461 17.009v-34.019c0-8.284-6.716-15-15-15s-15 6.716-15 15v34.019l-29.461-17.01c-7.175-4.142-16.349-1.684-20.49 5.49-4.142 7.174-1.684 16.348 5.49 20.49l29.461 17.011-29.461 17.01c-7.175 4.142-9.633 13.316-5.491 20.49z"/><path d="m61 466c0 8.284 6.716 15 15 15s15-6.716 15-15v-19.019l16.471 9.51c7.15 4.128 16.335 1.708 20.49-5.49 4.142-7.174 1.684-16.348-5.49-20.49l-16.471-9.511 16.471-9.51c7.174-4.142 9.632-13.316 5.49-20.49s-13.315-9.632-20.49-5.49l-16.471 9.509v-19.019c0-8.284-6.716-15-15-15s-15 6.716-15 15v19.019l-16.471-9.51c-7.175-4.142-16.349-1.684-20.49 5.49-4.142 7.174-1.684 16.348 5.49 20.49l16.471 9.511-16.471 9.51c-7.174 4.142-9.632 13.316-5.49 20.49 4.163 7.21 13.35 9.613 20.49 5.49l16.471-9.509z"/><path d="m488.961 391c-4.143-7.175-13.317-9.632-20.49-5.49l-16.471 9.509v-19.019c0-8.284-6.716-15-15-15s-15 6.716-15 15v19.019l-16.471-9.51c-7.174-4.143-16.349-1.685-20.49 5.49-4.143 7.174-1.685 16.348 5.49 20.49l16.471 9.511-16.471 9.51c-7.175 4.142-9.633 13.316-5.49 20.49 4.155 7.197 13.336 9.62 20.49 5.49l16.471-9.51v19.02c0 8.284 6.716 15 15 15s15-6.716 15-15v-19.019l16.471 9.51c7.149 4.128 16.333 1.709 20.49-5.49 4.143-7.174 1.685-16.348-5.49-20.49l-16.471-9.511 16.471-9.51c7.175-4.142 9.633-13.316 5.49-20.49z"/></g></svg>